<mxfile host="app.diagrams.net" modified="2022-12-09T10:28:38.299Z" agent="5.0 (Windows NT 10.0; Win64; x64) AppleWebKit/537.36 (KHTML, like Gecko) Chrome/108.0.0.0 Safari/537.36" version="20.6.0" etag="IeY1qCW-RcIrxzQV7IoL" type="github">
  <diagram id="1tzZHb7bP5VX-hzMEjVv" name="第 1 页">
    <mxGraphModel dx="865" dy="476" grid="0" gridSize="10" guides="1" tooltips="1" connect="1" arrows="1" fold="1" page="1" pageScale="1" pageWidth="827" pageHeight="1169" math="0" shadow="0">
      <root>
        <mxCell id="0" />
        <mxCell id="1" parent="0" />
        <mxCell id="5XTBuehFnHMsR9t_Hij_-16" style="edgeStyle=orthogonalEdgeStyle;rounded=0;orthogonalLoop=1;jettySize=auto;html=1;exitX=1;exitY=0.5;exitDx=0;exitDy=0;entryX=1;entryY=0.5;entryDx=0;entryDy=0;" edge="1" parent="1" source="5XTBuehFnHMsR9t_Hij_-1" target="5XTBuehFnHMsR9t_Hij_-4">
          <mxGeometry relative="1" as="geometry">
            <Array as="points">
              <mxPoint x="320" y="180" />
              <mxPoint x="320" y="220" />
            </Array>
          </mxGeometry>
        </mxCell>
        <mxCell id="5XTBuehFnHMsR9t_Hij_-1" value="batch" style="rounded=0;whiteSpace=wrap;html=1;" vertex="1" parent="1">
          <mxGeometry x="120" y="160" width="120" height="40" as="geometry" />
        </mxCell>
        <mxCell id="5XTBuehFnHMsR9t_Hij_-2" value="data" style="text;html=1;strokeColor=none;fillColor=none;align=center;verticalAlign=middle;whiteSpace=wrap;rounded=0;" vertex="1" parent="1">
          <mxGeometry x="140" y="130" width="60" height="30" as="geometry" />
        </mxCell>
        <mxCell id="5XTBuehFnHMsR9t_Hij_-19" style="edgeStyle=orthogonalEdgeStyle;rounded=0;orthogonalLoop=1;jettySize=auto;html=1;exitX=0;exitY=0.5;exitDx=0;exitDy=0;entryX=0;entryY=0.5;entryDx=0;entryDy=0;" edge="1" parent="1" source="5XTBuehFnHMsR9t_Hij_-4" target="5XTBuehFnHMsR9t_Hij_-5">
          <mxGeometry relative="1" as="geometry">
            <Array as="points">
              <mxPoint x="70" y="220" />
              <mxPoint x="70" y="260" />
            </Array>
          </mxGeometry>
        </mxCell>
        <mxCell id="5XTBuehFnHMsR9t_Hij_-4" value="batch" style="rounded=0;whiteSpace=wrap;html=1;" vertex="1" parent="1">
          <mxGeometry x="120" y="200" width="120" height="40" as="geometry" />
        </mxCell>
        <mxCell id="5XTBuehFnHMsR9t_Hij_-28" style="edgeStyle=orthogonalEdgeStyle;rounded=0;orthogonalLoop=1;jettySize=auto;html=1;exitX=1;exitY=0.5;exitDx=0;exitDy=0;" edge="1" parent="1" source="5XTBuehFnHMsR9t_Hij_-5" target="5XTBuehFnHMsR9t_Hij_-24">
          <mxGeometry relative="1" as="geometry" />
        </mxCell>
        <mxCell id="5XTBuehFnHMsR9t_Hij_-5" value="batch" style="rounded=0;whiteSpace=wrap;html=1;" vertex="1" parent="1">
          <mxGeometry x="120" y="240" width="120" height="40" as="geometry" />
        </mxCell>
        <mxCell id="5XTBuehFnHMsR9t_Hij_-12" style="edgeStyle=orthogonalEdgeStyle;rounded=0;orthogonalLoop=1;jettySize=auto;html=1;exitX=1;exitY=0.5;exitDx=0;exitDy=0;entryX=0;entryY=0.5;entryDx=0;entryDy=0;" edge="1" parent="1" source="5XTBuehFnHMsR9t_Hij_-11" target="5XTBuehFnHMsR9t_Hij_-1">
          <mxGeometry relative="1" as="geometry" />
        </mxCell>
        <mxCell id="5XTBuehFnHMsR9t_Hij_-11" value="model" style="ellipse;whiteSpace=wrap;html=1;aspect=fixed;" vertex="1" parent="1">
          <mxGeometry x="40" y="161.5" width="37" height="37" as="geometry" />
        </mxCell>
        <mxCell id="5XTBuehFnHMsR9t_Hij_-17" value="train" style="text;html=1;strokeColor=none;fillColor=none;align=center;verticalAlign=middle;whiteSpace=wrap;rounded=0;" vertex="1" parent="1">
          <mxGeometry x="250" y="150" width="60" height="30" as="geometry" />
        </mxCell>
        <mxCell id="5XTBuehFnHMsR9t_Hij_-18" value="model" style="text;html=1;strokeColor=none;fillColor=none;align=center;verticalAlign=middle;whiteSpace=wrap;rounded=0;" vertex="1" parent="1">
          <mxGeometry x="250" y="190" width="60" height="30" as="geometry" />
        </mxCell>
        <mxCell id="5XTBuehFnHMsR9t_Hij_-21" value="train" style="text;html=1;strokeColor=none;fillColor=none;align=center;verticalAlign=middle;whiteSpace=wrap;rounded=0;" vertex="1" parent="1">
          <mxGeometry x="70" y="198.5" width="60" height="30" as="geometry" />
        </mxCell>
        <mxCell id="5XTBuehFnHMsR9t_Hij_-22" value="model" style="text;html=1;strokeColor=none;fillColor=none;align=center;verticalAlign=middle;whiteSpace=wrap;rounded=0;" vertex="1" parent="1">
          <mxGeometry x="60" y="260" width="60" height="30" as="geometry" />
        </mxCell>
        <mxCell id="5XTBuehFnHMsR9t_Hij_-24" value="model" style="ellipse;whiteSpace=wrap;html=1;aspect=fixed;" vertex="1" parent="1">
          <mxGeometry x="320" y="240" width="40" height="40" as="geometry" />
        </mxCell>
        <mxCell id="5XTBuehFnHMsR9t_Hij_-25" value="train" style="text;html=1;strokeColor=none;fillColor=none;align=center;verticalAlign=middle;whiteSpace=wrap;rounded=0;" vertex="1" parent="1">
          <mxGeometry x="250" y="230" width="60" height="30" as="geometry" />
        </mxCell>
        <mxCell id="5XTBuehFnHMsR9t_Hij_-29" value="1 epoch" style="text;html=1;strokeColor=none;fillColor=none;align=center;verticalAlign=middle;whiteSpace=wrap;rounded=0;" vertex="1" parent="1">
          <mxGeometry x="384" y="190" width="60" height="30" as="geometry" />
        </mxCell>
        <mxCell id="5XTBuehFnHMsR9t_Hij_-49" style="edgeStyle=orthogonalEdgeStyle;rounded=0;orthogonalLoop=1;jettySize=auto;html=1;exitX=0;exitY=0.5;exitDx=0;exitDy=0;entryX=0.75;entryY=0;entryDx=0;entryDy=0;" edge="1" parent="1" source="5XTBuehFnHMsR9t_Hij_-30" target="5XTBuehFnHMsR9t_Hij_-35">
          <mxGeometry relative="1" as="geometry" />
        </mxCell>
        <mxCell id="5XTBuehFnHMsR9t_Hij_-53" style="edgeStyle=orthogonalEdgeStyle;rounded=0;orthogonalLoop=1;jettySize=auto;html=1;exitX=1;exitY=0.5;exitDx=0;exitDy=0;entryX=0.75;entryY=0;entryDx=0;entryDy=0;" edge="1" parent="1" source="5XTBuehFnHMsR9t_Hij_-30" target="5XTBuehFnHMsR9t_Hij_-43">
          <mxGeometry relative="1" as="geometry" />
        </mxCell>
        <mxCell id="5XTBuehFnHMsR9t_Hij_-30" value="parameter server" style="rounded=0;whiteSpace=wrap;html=1;" vertex="1" parent="1">
          <mxGeometry x="160" y="340" width="110" height="50" as="geometry" />
        </mxCell>
        <mxCell id="5XTBuehFnHMsR9t_Hij_-31" value="" style="rounded=0;whiteSpace=wrap;html=1;" vertex="1" parent="1">
          <mxGeometry x="77" y="470" width="110" height="100" as="geometry" />
        </mxCell>
        <mxCell id="5XTBuehFnHMsR9t_Hij_-33" value="Worker 1" style="text;html=1;strokeColor=none;fillColor=none;align=center;verticalAlign=middle;whiteSpace=wrap;rounded=0;" vertex="1" parent="1">
          <mxGeometry x="102" y="570" width="60" height="30" as="geometry" />
        </mxCell>
        <mxCell id="5XTBuehFnHMsR9t_Hij_-34" value="" style="rounded=0;whiteSpace=wrap;html=1;" vertex="1" parent="1">
          <mxGeometry x="80" y="500" width="60" height="70" as="geometry" />
        </mxCell>
        <mxCell id="5XTBuehFnHMsR9t_Hij_-35" value="data chunk" style="text;html=1;strokeColor=none;fillColor=none;align=center;verticalAlign=middle;whiteSpace=wrap;rounded=0;" vertex="1" parent="1">
          <mxGeometry x="70" y="470" width="80" height="30" as="geometry" />
        </mxCell>
        <mxCell id="5XTBuehFnHMsR9t_Hij_-39" style="edgeStyle=orthogonalEdgeStyle;rounded=0;orthogonalLoop=1;jettySize=auto;html=1;exitX=1;exitY=0.5;exitDx=0;exitDy=0;entryX=0.5;entryY=1;entryDx=0;entryDy=0;" edge="1" parent="1" source="5XTBuehFnHMsR9t_Hij_-36" target="5XTBuehFnHMsR9t_Hij_-30">
          <mxGeometry relative="1" as="geometry" />
        </mxCell>
        <mxCell id="5XTBuehFnHMsR9t_Hij_-36" value="mini batch" style="rounded=0;whiteSpace=wrap;html=1;" vertex="1" parent="1">
          <mxGeometry x="80" y="500" width="60" height="20" as="geometry" />
        </mxCell>
        <mxCell id="5XTBuehFnHMsR9t_Hij_-37" value="mini batch" style="rounded=0;whiteSpace=wrap;html=1;" vertex="1" parent="1">
          <mxGeometry x="80" y="520" width="60" height="20" as="geometry" />
        </mxCell>
        <mxCell id="5XTBuehFnHMsR9t_Hij_-38" value="mini batch" style="rounded=0;whiteSpace=wrap;html=1;" vertex="1" parent="1">
          <mxGeometry x="80" y="540" width="60" height="20" as="geometry" />
        </mxCell>
        <mxCell id="5XTBuehFnHMsR9t_Hij_-40" value="" style="rounded=0;whiteSpace=wrap;html=1;" vertex="1" parent="1">
          <mxGeometry x="247" y="470" width="110" height="100" as="geometry" />
        </mxCell>
        <mxCell id="5XTBuehFnHMsR9t_Hij_-42" value="" style="rounded=0;whiteSpace=wrap;html=1;" vertex="1" parent="1">
          <mxGeometry x="250" y="500" width="60" height="70" as="geometry" />
        </mxCell>
        <mxCell id="5XTBuehFnHMsR9t_Hij_-43" value="data chunk" style="text;html=1;strokeColor=none;fillColor=none;align=center;verticalAlign=middle;whiteSpace=wrap;rounded=0;" vertex="1" parent="1">
          <mxGeometry x="240" y="470" width="80" height="30" as="geometry" />
        </mxCell>
        <mxCell id="5XTBuehFnHMsR9t_Hij_-55" style="edgeStyle=orthogonalEdgeStyle;rounded=0;orthogonalLoop=1;jettySize=auto;html=1;exitX=0;exitY=0.5;exitDx=0;exitDy=0;entryX=0.5;entryY=1;entryDx=0;entryDy=0;" edge="1" parent="1" source="5XTBuehFnHMsR9t_Hij_-44" target="5XTBuehFnHMsR9t_Hij_-30">
          <mxGeometry relative="1" as="geometry" />
        </mxCell>
        <mxCell id="5XTBuehFnHMsR9t_Hij_-44" value="mini batch" style="rounded=0;whiteSpace=wrap;html=1;" vertex="1" parent="1">
          <mxGeometry x="250" y="500" width="60" height="20" as="geometry" />
        </mxCell>
        <mxCell id="5XTBuehFnHMsR9t_Hij_-45" value="mini batch" style="rounded=0;whiteSpace=wrap;html=1;" vertex="1" parent="1">
          <mxGeometry x="250" y="520" width="60" height="20" as="geometry" />
        </mxCell>
        <mxCell id="5XTBuehFnHMsR9t_Hij_-46" value="mini batch" style="rounded=0;whiteSpace=wrap;html=1;" vertex="1" parent="1">
          <mxGeometry x="250" y="540" width="60" height="20" as="geometry" />
        </mxCell>
        <mxCell id="5XTBuehFnHMsR9t_Hij_-47" value="Worker 2" style="text;html=1;strokeColor=none;fillColor=none;align=center;verticalAlign=middle;whiteSpace=wrap;rounded=0;" vertex="1" parent="1">
          <mxGeometry x="270" y="569" width="60" height="30" as="geometry" />
        </mxCell>
        <mxCell id="5XTBuehFnHMsR9t_Hij_-48" value="train" style="text;html=1;strokeColor=none;fillColor=none;align=center;verticalAlign=middle;whiteSpace=wrap;rounded=0;" vertex="1" parent="1">
          <mxGeometry x="140" y="505" width="60" height="30" as="geometry" />
        </mxCell>
        <mxCell id="5XTBuehFnHMsR9t_Hij_-50" value="model" style="text;html=1;strokeColor=none;fillColor=none;align=center;verticalAlign=middle;whiteSpace=wrap;rounded=0;" vertex="1" parent="1">
          <mxGeometry x="120" y="420" width="60" height="30" as="geometry" />
        </mxCell>
        <mxCell id="5XTBuehFnHMsR9t_Hij_-52" value="new parameter" style="text;html=1;strokeColor=none;fillColor=none;align=center;verticalAlign=middle;whiteSpace=wrap;rounded=0;" vertex="1" parent="1">
          <mxGeometry x="210" y="420" width="60" height="30" as="geometry" />
        </mxCell>
        <mxCell id="5XTBuehFnHMsR9t_Hij_-54" value="model" style="text;html=1;strokeColor=none;fillColor=none;align=center;verticalAlign=middle;whiteSpace=wrap;rounded=0;" vertex="1" parent="1">
          <mxGeometry x="290" y="410" width="60" height="30" as="geometry" />
        </mxCell>
      </root>
    </mxGraphModel>
  </diagram>
</mxfile>
